<svg xmlns="http://www.w3.org/2000/svg" shape-rendering="geometricPrecision" text-rendering="geometricPrecision" image-rendering="optimizeQuality" fill-rule="evenodd" clip-rule="evenodd" viewBox="0 0 512 502.92"><path fill-rule="nonzero" d="M248.22 301.3 76.33 211.14l-44.37 52.61c62.12 32.84 119.75 63.86 181.9 96.71l34.36-59.16zM382.59 57.73l.62 124.11c.03 6.48-4.05 12.05-9.86 14.39l.01.03-107.84 47.9c-4.12 1.64-11.68 1.89-15.7.2l-99.4-46.08.01-.03c-5.74-2.41-9.78-8.14-9.75-14.82l.59-122.53c-.45-7.57 2.66-14.93 10.11-17.93L255.11 1.19c4.23-1.7 8.77-1.51 12.63.15L371.3 38.79c6.2 2.24 10.12 7.81 10.4 13.84.59 1.64.89 3.37.89 5.1zM247.16 220.38V103.91l-91.14-35.9-1.75 112.62 92.89 39.75zm21.57-116.45v116.35l98.7-40.92L366.87 66l-98.14 37.93zm-155.25 81.16L88 197.72l171.34 90.04 171.67-90.21-20.6-10.71-.09-19.64 25.86 13.35 48.4-45.88-74.63-40.37-.1-20.78 98.65 52.15c.58.31 1.12.71 1.61 1.21 2.55 2.59 2.51 6.75-.07 9.3l-59.01 57.94 57.14 68.39c2.32 2.78 1.95 6.94-.82 9.27-.43.35-.88.65-1.35.87l-51.29 27.12v101.66c0 2.73-1.69 5.09-4.07 6.08l-185.46 94.14c-4.38 2.07-6.05 1.61-10.76-1.46L68.62 407.3a6.557 6.557 0 0 1-3.63-5.87l-.04-101.16-52.25-27.62c-.47-.22-.91-.52-1.34-.87-2.78-2.33-3.15-6.49-.82-9.27l55.66-66.6-64.58-61.2c-2.39-2.72-2.1-6.87.63-9.27.4-.34.82-.64 1.25-.87l110.57-62.55-.1 21.14-88.63 50.42 52.64 48.94 35.6-17.63-.1 20.2zm329.87 26.72-171.58 89.98 33.42 59.3 180.52-97.93-42.36-51.35z"/></svg>